<?xml version="1.0" encoding="UTF-8" standalone="no"?>
<!-- Created with Inkscape (http://www.inkscape.org/) -->

<svg
   version="1.1"
   id="svg2"
   width="1365.3333"
   height="1365.3333"
   viewBox="0 0 1365.3333 1365.3333"
   sodipodi:docname="ombi.svg"
   inkscape:version="1.3.2 (091e20e, 2023-11-25, custom)"
   xmlns:inkscape="http://www.inkscape.org/namespaces/inkscape"
   xmlns:sodipodi="http://sodipodi.sourceforge.net/DTD/sodipodi-0.dtd"
   xmlns="http://www.w3.org/2000/svg"
   xmlns:svg="http://www.w3.org/2000/svg">
  <defs
     id="defs6">
    <clipPath
       clipPathUnits="userSpaceOnUse"
       id="clipPath16">
      <path
         d="M 0,1024 H 1024 V 0 H 0 Z"
         id="path14" />
    </clipPath>
    <clipPath
       clipPathUnits="userSpaceOnUse"
       id="clipPath28">
      <path
         d="M 0,1024 H 1024 V 0 H 0 Z"
         id="path26" />
    </clipPath>
    <clipPath
       clipPathUnits="userSpaceOnUse"
       id="clipPath36">
      <path
         d="M -0.707108,1024.71 H 1024.71 V -0.707108 H -0.707108 Z"
         id="path34" />
    </clipPath>
    <clipPath
       clipPathUnits="userSpaceOnUse"
       id="clipPath108">
      <path
         d="m -0.5,1024.5 h 1025 V -0.5 H -0.5 Z"
         id="path106" />
    </clipPath>
    <linearGradient
       x1="0"
       y1="0"
       x2="1"
       y2="0"
       gradientUnits="userSpaceOnUse"
       gradientTransform="matrix(0,886,886,0,515,68)"
       spreadMethod="pad"
       id="linearGradient134">
      <stop
         style="stop-opacity:1;stop-color:#e37200"
         offset="0"
         id="stop130" />
      <stop
         style="stop-opacity:1;stop-color:#e3913e"
         offset="1"
         id="stop132" />
    </linearGradient>
    <clipPath
       clipPathUnits="userSpaceOnUse"
       id="clipPath144">
      <path
         d="M 0,1024 H 1024 V 0 H 0 Z"
         id="path142" />
    </clipPath>
    <clipPath
       clipPathUnits="userSpaceOnUse"
       id="clipPath188">
      <path
         d="M 0,1024 H 1024 V 0 H 0 Z"
         id="path186" />
    </clipPath>
  </defs>
  <sodipodi:namedview
     id="namedview4"
     pagecolor="#000000"
     bordercolor="#000000"
     borderopacity="0"
     inkscape:showpageshadow="2"
     inkscape:pageopacity="0.0"
     inkscape:pagecheckerboard="0"
     inkscape:deskcolor="#d1d1d1"
     inkscape:zoom="0.65258793"
     inkscape:cx="682.66663"
     inkscape:cy="682.66663"
     inkscape:window-width="1920"
     inkscape:window-height="1129"
     inkscape:window-x="1016"
     inkscape:window-y="-8"
     inkscape:window-maximized="1"
     inkscape:current-layer="g8" />
  <g
     id="g8"
     inkscape:groupmode="layer"
     inkscape:label="Ombi-icon"
     transform="matrix(1.3333333,0,0,-1.3333333,0,1365.3333)">
    <g
       id="g118"
       transform="translate(-2.2985409,-2.2985409)">
      <g
         id="g120">
        <g
           id="g126">
          <g
             id="g128">
            <path
               d="M 72,511 C 72,266.338 270.337,68 515,68 v 0 c 244.662,0 443,198.338 443,443 v 0 c 0,244.662 -198.338,443 -443,443 v 0 C 270.337,954 72,755.662 72,511"
               style="fill:url(#linearGradient134);stroke:none"
               id="path136" />
          </g>
        </g>
      </g>
    </g>
    <g
       id="g138">
      <g
         id="g140"
         clip-path="url(#clipPath144)">
        <g
           id="g146"
           transform="translate(531.6465,523.166)">
          <path
             d="m 0,0 c 4.337,2.043 8.59,4.294 13.029,6.085 8.096,3.267 16.607,4.871 25.296,5.489 18.591,1.325 35.839,-3.115 51.752,-12.608 4.076,-2.432 8.104,-5.063 11.544,-8.514 29.832,-29.926 59.784,-59.733 89.573,-89.701 5.595,-5.628 9.798,-12.402 13.295,-19.522 8.706,-17.718 10.484,-36.446 6.917,-55.615 -2.161,-11.619 -6.723,-22.391 -13.722,-32.144 -5.813,-8.098 -12.717,-14.83 -20.622,-20.897 -10.983,-8.426 -23.303,-13.267 -36.694,-15.593 -11.975,-2.081 -23.895,-1.456 -35.786,1.428 -11.156,2.707 -20.922,8.161 -30.522,14.082 -1.213,0.749 -2.204,1.874 -3.254,2.869 -2.106,1.992 -4.214,3.979 -6.263,6.027 -27.325,27.31 -54.619,54.653 -81.978,81.93 -5.306,5.292 -9.674,11.226 -13.596,17.59 -6.577,10.675 -10.002,22.41 -11.29,34.67 -1.451,13.814 0.068,27.46 5.26,40.481 1.77,4.44 4.054,8.675 6.103,13.005 11.346,-11.336 22.692,-22.672 34.038,-34.008 -2.516,-3.836 -2.528,-8.307 -2.191,-12.47 0.918,-11.34 5.166,-21.226 13.461,-29.444 26.94,-26.693 53.701,-53.566 80.47,-80.43 3.613,-3.624 7.699,-6.276 12.232,-8.685 19.881,-10.562 45.465,-1.006 55.689,15.73 9.864,16.146 9.17,38.852 -6.26,54.293 -26.979,26.996 -54.004,53.946 -80.945,80.981 -11.137,11.176 -24.671,14.199 -39.779,12.18 -0.614,-0.082 -1.142,-0.809 -1.709,-1.235 C 22.698,-22.684 11.35,-11.342 0,0"
             style="fill:#333333;fill-opacity:1;fill-rule:nonzero;stroke:none"
             id="path148" />
        </g>
        <g
           id="g150"
           transform="translate(492.7124,500.1855)">
          <path
             d="m 0,0 c -5.366,-2.664 -10.652,-5.477 -16.397,-7.329 -18.46,-5.952 -36.867,-5.963 -55.369,-0.091 -12.861,4.081 -23.923,10.97 -33.419,20.457 -27.837,27.812 -55.592,55.708 -83.505,83.444 -13.296,13.213 -20.789,29.352 -23.618,47.519 -3.298,21.181 0.869,41.343 12.405,59.375 10.591,16.556 25.089,28.738 43.991,35.494 15.681,5.605 31.636,6.528 47.671,3.386 11.785,-2.31 22.893,-6.798 32.694,-14.339 4.412,-3.395 8.545,-6.974 12.448,-10.873 27.157,-27.127 54.218,-54.352 81.471,-81.382 C 29.278,124.844 36.138,111.792 39.97,97.221 44.353,80.558 43.891,63.78 38.203,47.409 36.244,41.772 33.392,36.445 30.949,30.977 19.604,42.312 8.259,53.647 -3.086,64.982 c 2.638,3.01 2.252,6.958 2.149,10.289 -0.363,11.86 -4.213,22.442 -12.897,31.076 -27.04,26.881 -53.959,53.883 -80.896,80.867 -2.563,2.568 -5.423,4.63 -8.464,6.619 -21.25,13.893 -50.599,4.827 -61.621,-17.115 -8.823,-17.564 -3.903,-38.769 8.075,-50.595 27.303,-26.957 54.358,-54.167 81.423,-81.363 8.422,-8.464 18.722,-12.276 30.339,-13.013 3.788,-0.241 7.667,-0.126 10.968,2.315 C -22.673,22.708 -11.336,11.354 0,0"
             style="fill:#333333;fill-opacity:1;fill-rule:nonzero;stroke:none"
             id="path152" />
        </g>
        <g
           id="g154"
           transform="translate(489.626,565.1675)">
          <path
             d="m 0,0 c 11.345,-11.335 22.69,-22.67 34.035,-34.005 2.662,-2.665 5.323,-5.331 7.986,-7.996 11.349,-11.343 22.698,-22.684 34.047,-34.027 1.839,-1.909 3.65,-3.847 5.523,-5.722 16.189,-16.207 32.412,-32.379 48.56,-48.627 2.013,-2.025 4.073,-4.2 5.386,-6.688 4.86,-9.207 3.104,-18.107 -4.281,-25.668 -6.525,-6.679 -14.085,-7.599 -22.579,-5.005 -3.62,1.106 -6.196,3.561 -8.773,6.136 -18.248,18.237 -36.531,36.44 -54.803,54.654 -11.346,11.336 -22.692,22.672 -34.038,34.008 -2.66,2.652 -5.318,5.306 -7.977,7.958 -11.336,11.354 -22.672,22.708 -34.009,34.062 -2.017,2.073 -4.011,4.169 -6.054,6.215 -11.753,11.77 -23.544,23.502 -35.251,35.318 -1.839,1.857 -3.681,3.883 -4.887,6.166 -4.544,8.604 -2.238,19.27 4.14,25.226 7.762,7.25 18.246,8.77 27.1,3.078 1.996,-1.284 3.679,-3.092 5.382,-4.783 C -26.978,26.884 -13.494,13.437 0,0"
             style="fill:#232323;fill-opacity:1;fill-rule:nonzero;stroke:none"
             id="path156" />
        </g>
        <g
           id="g158"
           transform="translate(531.6465,523.166)">
          <path
             d="m 0,0 c 4.337,2.043 8.59,4.294 13.029,6.085 8.096,3.267 16.607,4.871 25.296,5.489 18.591,1.325 35.839,-3.115 51.752,-12.608 4.076,-2.432 8.104,-5.063 11.544,-8.514 29.832,-29.926 59.784,-59.733 89.573,-89.701 5.595,-5.628 9.798,-12.402 13.295,-19.522 8.706,-17.718 10.484,-36.446 6.917,-55.615 -2.161,-11.619 -6.723,-22.391 -13.722,-32.144 -5.813,-8.098 -12.717,-14.83 -20.622,-20.897 -10.983,-8.426 -23.303,-13.267 -36.694,-15.593 -11.975,-2.081 -23.895,-1.456 -35.786,1.428 -11.156,2.707 -20.922,8.161 -30.522,14.082 -1.213,0.749 -2.204,1.874 -3.254,2.869 -2.106,1.992 -4.214,3.979 -6.263,6.027 -27.325,27.31 -54.619,54.653 -81.978,81.93 -5.306,5.292 -9.674,11.226 -13.596,17.59 -6.577,10.675 -10.002,22.41 -11.29,34.67 -1.451,13.814 0.068,27.46 5.26,40.481 1.77,4.44 4.054,8.675 6.103,13.005 11.346,-11.336 22.692,-22.672 34.038,-34.008 -2.516,-3.836 -2.528,-8.307 -2.191,-12.47 0.918,-11.34 5.166,-21.226 13.461,-29.444 26.94,-26.693 53.701,-53.566 80.47,-80.43 3.613,-3.624 7.699,-6.276 12.232,-8.685 19.881,-10.562 45.465,-1.006 55.689,15.73 9.864,16.146 9.17,38.852 -6.26,54.293 -26.979,26.996 -54.004,53.946 -80.945,80.981 -11.137,11.176 -24.671,14.199 -39.779,12.18 -0.614,-0.082 -1.142,-0.809 -1.709,-1.235 C 22.698,-22.684 11.35,-11.342 0,0"
             style="fill:#ffffff;fill-opacity:1;fill-rule:nonzero;stroke:none"
             id="path160" />
        </g>
        <g
           id="g162"
           transform="translate(492.7124,500.1855)">
          <path
             d="m 0,0 c -5.366,-2.664 -10.652,-5.477 -16.397,-7.329 -18.46,-5.952 -36.867,-5.963 -55.369,-0.091 -12.861,4.081 -23.923,10.97 -33.419,20.457 -27.837,27.812 -55.592,55.708 -83.505,83.444 -13.296,13.213 -20.789,29.352 -23.618,47.519 -3.298,21.181 0.869,41.343 12.405,59.375 10.591,16.556 25.089,28.738 43.991,35.494 15.681,5.605 31.636,6.528 47.671,3.386 11.785,-2.31 22.893,-6.798 32.694,-14.339 4.412,-3.395 8.545,-6.974 12.448,-10.873 27.157,-27.127 54.218,-54.352 81.471,-81.382 C 29.278,124.844 36.138,111.792 39.97,97.221 44.353,80.558 43.891,63.78 38.203,47.409 36.244,41.772 33.392,36.445 30.949,30.977 19.604,42.312 8.259,53.647 -3.086,64.982 c 2.638,3.01 2.252,6.958 2.149,10.289 -0.363,11.86 -4.213,22.442 -12.897,31.076 -27.04,26.881 -53.959,53.883 -80.896,80.867 -2.563,2.568 -5.423,4.63 -8.464,6.619 -21.25,13.893 -50.599,4.827 -61.621,-17.115 -8.823,-17.564 -3.903,-38.769 8.075,-50.595 27.303,-26.957 54.358,-54.167 81.423,-81.363 8.422,-8.464 18.722,-12.276 30.339,-13.013 3.788,-0.241 7.667,-0.126 10.968,2.315 C -22.673,22.708 -11.336,11.354 0,0"
             style="fill:#ffffff;fill-opacity:1;fill-rule:nonzero;stroke:none"
             id="path164" />
        </g>
        <g
           id="g166"
           transform="translate(489.626,565.1675)">
          <path
             d="m 0,0 c 11.345,-11.335 22.69,-22.67 34.035,-34.005 2.662,-2.665 5.323,-5.331 7.986,-7.996 11.349,-11.343 22.698,-22.684 34.047,-34.027 1.839,-1.909 3.65,-3.847 5.523,-5.722 16.189,-16.207 32.412,-32.379 48.56,-48.627 2.013,-2.025 4.073,-4.2 5.386,-6.688 4.86,-9.207 3.104,-18.107 -4.281,-25.668 -6.525,-6.679 -14.085,-7.599 -22.579,-5.005 -3.62,1.106 -6.196,3.561 -8.773,6.136 -18.248,18.237 -36.531,36.44 -54.803,54.654 -11.346,11.336 -22.692,22.672 -34.038,34.008 -2.66,2.652 -5.318,5.306 -7.977,7.958 -11.336,11.354 -22.672,22.708 -34.009,34.062 -2.017,2.073 -4.011,4.169 -6.054,6.215 -11.753,11.77 -23.544,23.502 -35.251,35.318 -1.839,1.857 -3.681,3.883 -4.887,6.166 -4.544,8.604 -2.238,19.27 4.14,25.226 7.762,7.25 18.246,8.77 27.1,3.078 1.996,-1.284 3.679,-3.092 5.382,-4.783 C -26.978,26.884 -13.494,13.437 0,0"
             style="fill:#bfbfbf;fill-opacity:1;fill-rule:nonzero;stroke:none"
             id="path168" />
        </g>
        <g
           id="g170"
           transform="translate(646.2148,635.5952)">
          <path
             d="m 0,0 c -15.297,-15.297 -30.832,-30.832 -46.608,-46.609 -1.478,-0.141 -3.206,-0.307 -5.27,-0.504 -1.715,1.715 -3.462,3.462 -5.479,5.479 0.049,1.752 0.106,3.726 0.16,5.598 15.39,15.391 30.579,30.579 45.631,45.631 3.119,1.594 6.033,1.68 8.709,-0.396 C 0.023,6.964 0.903,3.956 0,0"
             style="fill:#ffffff;fill-opacity:1;fill-rule:nonzero;stroke:none"
             id="path172" />
        </g>
        <g
           id="g174"
           transform="translate(676.3037,568.9321)">
          <path
             d="m 0,0 c 0.549,-1.997 1.14,-4.144 1.818,-6.609 -1.7,-1.989 -3.305,-3.868 -4.616,-5.399 -6.257,-0.953 -55.259,-1.226 -66.367,-0.42 -1.49,1.49 -3.244,3.244 -5.381,5.381 0.457,2.244 0.947,4.647 1.318,6.468 2.88,2.827 5.778,3.393 8.91,3.391 C -45.814,2.796 -27.311,2.794 -8.806,2.819 -5.945,2.823 -3.298,2.233 0,0"
             style="fill:#ffffff;fill-opacity:1;fill-rule:nonzero;stroke:none"
             id="path176" />
        </g>
        <g
           id="g178"
           transform="translate(556.2959,672.2959)">
          <path
             d="m 0,0 c 1.744,1.744 2.984,2.984 4.356,4.357 3.766,0.991 7.394,1.118 10.518,-3.209 0.147,-1.367 0.542,-3.354 0.547,-5.341 0.045,-19.259 0.031,-38.518 0.01,-57.777 -0.002,-1.257 -0.201,-2.513 -0.301,-3.688 -2.146,-3.964 -5.41,-5.217 -9.93,-4.559 -1.435,1.436 -3.021,3.022 -5.13,5.13 C -0.069,-43.838 0.037,-22.082 0,0"
             style="fill:#ffffff;fill-opacity:1;fill-rule:nonzero;stroke:none"
             id="path180" />
        </g>
      </g>
    </g>
  </g>
</svg>
